<svg id="Layer_1" data-name="Layer 1" xmlns="http://www.w3.org/2000/svg" viewBox="0 0 526.34 526.39">
  <path d="M222.09,472.49c-6.89-4.21-13.84-8.33-20.66-12.67-3.25-2.07-6.23-4.55-9.34-6.85l.31-.76c3.49.64,7,1.26,10.45,2q36.75,7.26,73.48,14.56c1.11.22,2.26.27,3.39.42,6.21.83,7.23.25,7.72-5.91.71-8.88,1.08-17.79,1.57-26.69.24-4.35.57-8.7.62-13.05,0-2.08.88-2.66,2.77-2.71,8-.23,16-.6,23.93-.81,17.51-.46,35-.81,52.54-1.35,1.14,0,2.24-1.28,3.35-2-1-1.13-1.77-2.89-3-3.29-11.62-3.78-23.31-7.34-35-10.95l-63.84-19.73c-.7-.22-1.38-.47-2.09-.62-2.92-.61-4.68.66-4.79,3.61-.3,8.08-.77,16.16-.7,24.24.05,5.64.13,11.14-3,16.13-14.24.42-28.47.8-42.71,1.25-13,.42-26,.9-39,1.36-5.58.2-11.15.4-16.72.66a7.94,7.94,0,0,0-2,.64c-30.06,4.32-46.95,27.59-51.47,54.78-3,18.16-3.08,36.33,1.23,54.34,5.43,22.68,17.15,41.69,34.28,57.3,31.19,28.44,68.07,45.35,109.37,52.85,21.74,3.95,43.67,4.23,65.68,2.51,35.46-2.76,67.29-16.15,97.7-33.42a309.63,309.63,0,0,0,34.94-22.54c20.12-15.34,35.16-35.27,48-56.95C515,512,525.47,483.29,529.6,452.34c3.76-28.15,2.12-56-3.81-83.77-6.25-29.14-16.54-56.63-32.68-81.81a198.45,198.45,0,0,0-43-47.55c-10.72-8.65-21.33-17.5-32.56-25.45-19.7-13.95-41.4-23.35-65.54-26.77-8.81-1.24-17.44-4-26.26-4.82-11.32-1.12-22.75-1.31-34.14-1.45a297.1,297.1,0,0,0-30.15.75c-6.83.6-13.58,2.6-20.26,4.38C207,195,174.94,208.79,147.1,230.92c-36.79,29.25-65.1,65-79,110.57-4.78,15.58-7.44,31.88-10.21,48-2,11.91-2.73,24-4,36.09-.93,9.06-1.77,18.12-2.65,27.19-2.49.11-2.16,2.47-3.07,3.84-1.61-3.43-3.66-6.73-4.74-10.33a132.76,132.76,0,0,1-5.17-37.14c0-5.6-.54-11.19-.56-16.79-.11-38.29,9.67-74,28.52-107.21,27.84-49,66.9-86.28,117.91-110.53,28.15-13.38,57.8-20.8,89.25-20.36,14.82.21,29.65-.52,44.47-.72,31.07-.44,60.43,7,88.41,20,36.18,16.79,66.94,40.81,93.07,70.89,23.59,27.16,41.72,57.47,53.26,91.62,5.16,15.27,9.1,30.92,9.93,47,1.19,22.95,3.07,46-.76,68.9-4,23.78-11.79,46.36-21.71,68.24-7.95,17.54-15.71,35.22-26.87,51.09-13.78,19.6-30.63,36.26-49.42,50.93-11.42,8.91-23,17.68-35.25,25.46-15.92,10.15-33.83,16-51.91,21.19-15.85,4.55-31.71,9.23-48.28,10.11-13.25.7-26.55,1.3-39.78.77a416.93,416.93,0,0,1-45.48-4c-30.38-4.56-58-16.85-84.09-32.64-11.2-6.77-22-14.09-31.41-23.29C111.93,604.51,101,586.2,93.06,566c-3.7-9.36-7.45-18.75-8.38-28.86-1.27-14-1.07-27.93,1.74-41.79,5.7-28.06,20.25-50.76,41.72-69.26,4.62-4,10.2-6.24,16.17-7.54a26.83,26.83,0,0,0,4.78-1.32c6.43-2.72,13.25-3.11,20.07-3.69q34.4-3,68.78-6.07c3.61-.32,5-2,5.08-6.11.13-7.37.1-14.73.18-22.09q.09-9.81.28-19.6c.12-6.21,4.72-9.37,10.73-7.15,9,3.35,18,6.93,27,10.37a36.44,36.44,0,0,0,3.85,1,33.54,33.54,0,0,0,4,2.2q27.06,10.56,54.18,21c5.21,2,10.47,3.88,15.7,5.81,7.55,3.39,15.14,6.7,22.63,10.2,13.53,6.31,27,12.74,40.5,19.1,1.21.57,2.61.76,3.74,1.44a18.24,18.24,0,0,1,2.77,2.52c-1.09.95-2.06,2.46-3.29,2.72a57.69,57.69,0,0,1-8.34.71c-20.26,1.31-40.52,2.58-60.78,3.92-15.08,1-30.16,2.14-45.25,3-2.4.14-2.65,1.41-2.82,3.11-.94,9.17-1.84,18.34-2.78,27.5q-1.47,14.37-3,28.72a10.67,10.67,0,0,1-.41,1.47l-8.25-1.09a17.46,17.46,0,0,0-2.19-1.13c-18.24-6.28-36.45-12.61-54.73-18.77C231.9,474.83,227,473.79,222.09,472.49Z" transform="translate(-37.7 -153.5)" style="fill: #f8b81b"/>
  <path d="M358.86,393c-5.23-1.93-10.49-3.8-15.7-5.81q-27.11-10.46-54.18-21a33.54,33.54,0,0,1-4-2.2c2-3,3.95-6.07,5.9-9.12,4-6.19,8.06-12.31,11.85-18.61,3.21-5.34,1.28-8.51-5-8.49q-53.47.22-107,.5h-5.91c-7.28-.06-10.13-2.9-10.17-10.26-.05-8.4,0-16.8,0-25.2,0-6.12,0-12.24,0-18.35.05-7.31,2.64-9.93,10-9.91q69.53.18,139,.42,43.08.1,86.17,0a7.29,7.29,0,0,1,7.05,4c7.67,13.19,6.92,26.12-1.35,38.68Q392.29,343,368.75,378.27C365.48,383.19,362.16,388.07,358.86,393Z" transform="translate(-37.7 -153.5)" style="fill: #2d343d"/>
  <path d="M222.09,472.49c4.86,1.3,9.81,2.34,14.57,3.94,18.28,6.16,36.49,12.49,54.73,18.77a17.46,17.46,0,0,1,2.19,1.13L287,505.45H417.16c6.76,0,8.09,1.22,8.1,7.87q.06,28.6,0,57.22c0,4.11-1,5-5.56,5H266.06c-28.61,0-57.22,0-85.84.07a5,5,0,0,1-4.93-2.79c-6-10.13-7.31-20.74-1.35-31,5.13-8.82,11.58-16.86,17.43-25.26Q206.75,494.54,222.09,472.49Z" transform="translate(-37.7 -153.5)" style="fill: #2d343d"/>
  <path d="M159.43,430a7.94,7.94,0,0,1,2-.64c5.57-.26,11.14-.46,16.72-.66,13-.46,26-.94,39-1.36,14.24-.45,28.47-.83,42.71-1.25-.9.61-1.77,1.69-2.71,1.75-5.25.35-10.53.51-15.8.62-13.45.28-26.91.45-40.36.77-12.62.3-25.23.76-37.84,1.11A30.7,30.7,0,0,1,159.43,430Z" transform="translate(-37.7 -153.5)" style="fill: #fbdd8e"/>
  <path d="M48.17,456.6c.91-1.37.58-3.73,3.07-3.84v7.95l-.49.28Z" transform="translate(-37.7 -153.5)" style="fill: #fbd876"/>
</svg>
